<?xml version="1.0" encoding="UTF-8" standalone="no"?>
<!DOCTYPE svg PUBLIC "-//W3C//DTD SVG 1.1//EN" "http://www.w3.org/Graphics/SVG/1.1/DTD/svg11.dtd">
<svg xmlns="http://www.w3.org/2000/svg" version="1.1" viewBox="0.00 0.00 1603.00 306.00">
<path fill="#f46a03" d="
  M 107.96 78.62
  C 79.33 76.37 49.58 101.18 60.52 131.88
  C 66.41 148.41 81.42 157.01 98.62 157.00
  Q 173.59 156.99 248.73 157.01
  Q 263.14 157.01 277.86 159.61
  Q 288.95 161.56 297.21 165.36
  C 315.94 173.98 329.53 193.45 330.86 214.38
  Q 332.57 241.26 314.91 261.37
  Q 303.67 274.18 286.27 279.26
  A 0.51 0.51 0.0 0 1 285.63 278.83
  C 282.64 252.52 258.75 239.61 234.53 239.55
  Q 184.41 239.42 127.38 239.55
  Q 117.71 239.57 110.28 238.67
  Q 95.48 236.88 81.62 231.86
  C 47.23 219.42 25.11 193.43 17.13 158.17
  Q 7.52 115.76 26.61 77.00
  Q 38.08 53.71 60.08 38.57
  C 72.52 30.01 84.75 25.04 99.41 22.28
  Q 126.17 17.24 151.23 20.55
  C 165.49 22.43 180.44 26.96 192.45 35.42
  Q 200.70 41.23 205.14 47.98
  C 211.02 56.95 213.52 67.67 211.40 78.16
  C 208.29 93.58 196.18 104.76 181.03 107.76
  Q 169.17 110.11 156.92 106.56
  Q 150.46 104.69 144.14 99.91
  Q 135.38 93.29 127.57 86.47
  C 122.48 82.03 115.04 79.18 107.96 78.62
  Z"
/>
<path fill="#673c78" d="
  M 802.58 66.47
  Q 816.64 55.09 830.72 44.19
  Q 835.03 40.85 839.67 37.78
  C 845.91 33.66 851.98 29.37 858.72 26.14
  Q 863.56 23.81 868.78 21.75
  C 878.42 17.94 889.98 17.87 897.54 25.53
  C 907.02 35.13 907.23 51.15 894.92 58.63
  C 889.43 61.97 881.49 61.22 875.68 58.40
  C 871.57 56.41 868.25 53.39 864.12 51.60
  C 856.46 48.27 848.02 52.03 840.91 55.69
  Q 820.34 66.30 802.46 78.65
  Q 802.00 78.96 802.00 79.52
  Q 801.99 136.55 802.03 193.49
  Q 802.04 205.63 803.62 214.80
  Q 805.56 226.09 815.37 230.10
  Q 822.50 233.02 829.98 229.06
  A 0.18 0.18 0.0 0 1 830.25 229.22
  L 830.25 236.73
  Q 830.25 237.03 829.97 237.11
  C 813.66 242.05 794.14 240.88 779.48 232.62
  C 761.96 222.76 755.04 204.56 755.02 184.26
  Q 754.97 136.39 755.01 85.29
  Q 755.01 84.75 754.47 84.75
  L 742.50 84.75
  Q 742.25 84.75 742.25 84.50
  L 742.25 76.04
  A 0.25 0.25 0.0 0 1 742.49 75.79
  Q 751.06 75.56 759.05 72.25
  Q 778.40 64.22 790.18 48.52
  Q 795.11 41.95 796.32 34.12
  Q 796.38 33.75 796.75 33.75
  L 801.75 33.75
  Q 802.00 33.75 802.00 34.00
  L 802.00 66.19
  Q 802.00 66.94 802.58 66.47
  Z"
/>
<path fill="#673c78" d="
  M 478.18 152.13
  C 465.07 155.73 451.68 159.73 438.39 161.82
  Q 430.53 163.05 422.58 162.52
  Q 422.03 162.48 421.90 163.02
  C 418.31 177.73 415.56 193.76 417.51 208.94
  C 418.87 219.53 423.60 233.23 433.52 238.15
  Q 434.02 238.40 434.01 238.96
  L 434.00 239.50
  Q 433.99 240.00 433.50 240.00
  L 374.25 240.00
  A 0.92 0.91 -71.3 0 1 373.53 238.53
  C 387.30 220.44 398.30 199.04 407.17 178.66
  Q 423.50 141.16 438.26 98.81
  Q 448.59 69.17 459.63 38.14
  Q 462.03 31.38 464.90 24.30
  Q 465.12 23.75 465.72 23.75
  L 485.72 23.75
  A 0.75 0.74 81.5 0 1 486.43 24.28
  C 501.90 76.23 518.99 129.06 540.09 179.10
  Q 546.86 195.16 555.79 212.18
  Q 563.22 226.33 572.62 238.24
  A 1.18 1.17 -54.7 0 1 572.81 239.37
  Q 572.58 240.00 571.91 240.00
  Q 529.72 240.00 483.67 240.00
  A 0.68 0.68 0.0 0 1 482.99 239.29
  L 483.01 238.85
  Q 483.04 238.18 483.65 237.92
  C 487.65 236.20 489.86 230.74 490.70 226.51
  C 493.30 213.42 490.70 199.17 487.79 185.97
  Q 483.96 168.53 479.10 152.64
  Q 478.89 151.94 478.18 152.13
  Z
  M 444.88 90.95
  Q 432.83 123.18 424.54 152.01
  Q 423.60 155.30 422.90 158.73
  Q 422.78 159.31 423.37 159.30
  C 441.52 159.12 461.93 150.78 473.48 136.71
  Q 473.96 136.13 473.73 135.41
  Q 463.38 103.53 451.83 74.23
  Q 451.44 73.24 451.07 74.24
  Q 448.05 82.46 444.88 90.95
  Z"
/>
<path fill="#673c78" d="
  M 1046.79 93.79
  Q 1057.06 81.37 1068.31 74.38
  C 1079.43 67.48 1092.65 66.51 1101.65 77.36
  C 1109.53 86.88 1105.79 104.87 1092.98 108.32
  C 1083.86 110.78 1074.92 106.23 1068.14 99.96
  C 1064.64 96.72 1058.79 94.33 1055.22 98.99
  A 0.40 0.39 -56.8 0 0 1055.34 99.57
  Q 1067.30 106.21 1075.78 119.67
  C 1082.68 130.61 1084.84 144.20 1084.15 157.18
  C 1082.28 192.09 1053.32 216.75 1019.55 218.46
  C 1003.55 219.26 986.48 217.12 973.33 207.28
  Q 972.89 206.95 972.40 207.20
  C 966.49 210.08 963.35 217.71 962.74 223.94
  Q 962.21 229.40 965.38 233.60
  C 969.18 238.64 974.57 239.87 980.67 239.83
  Q 1015.18 239.62 1044.43 239.82
  C 1057.56 239.91 1071.32 241.29 1078.67 253.22
  Q 1085.83 264.84 1081.32 277.38
  C 1078.28 285.81 1071.69 292.18 1063.00 294.68
  Q 1062.56 294.80 1062.49 294.35
  C 1060.83 283.01 1050.99 277.04 1040.13 277.03
  Q 1015.18 276.99 989.26 276.98
  C 971.37 276.97 952.03 268.81 945.91 250.64
  C 939.50 231.58 947.11 210.88 963.44 199.60
  A 0.35 0.34 -41.2 0 0 963.48 199.06
  C 946.49 183.31 940.82 160.71 945.47 138.33
  C 950.85 112.47 972.72 93.46 998.34 88.69
  Q 1023.24 84.06 1045.86 94.01
  Q 1046.41 94.25 1046.79 93.79
  Z
  M 1030.5081 203.6237
  A 55.21 33.61 73.6 0 0 1047.1625 141.1705
  A 55.21 33.61 73.6 0 0 999.3319 97.6963
  A 55.21 33.61 73.6 0 0 982.6775 160.1495
  A 55.21 33.61 73.6 0 0 1030.5081 203.6237
  Z"
/>
<path fill="#673c78" d="
  M 641.81 131.80
  C 645.40 113.39 652.55 92.14 669.33 81.86
  Q 679.91 75.37 691.55 77.61
  C 706.90 80.56 716.69 95.24 721.33 108.98
  Q 726.26 123.58 726.24 140.98
  Q 726.19 181.17 726.31 217.53
  Q 726.32 223.08 728.93 229.08
  Q 731.95 236.02 739.24 238.07
  Q 740.41 238.40 739.98 239.51
  Q 739.80 240.00 739.27 240.00
  L 666.51 240.00
  A 0.48 0.47 79.0 0 1 666.07 239.70
  Q 665.79 239.01 666.12 238.54
  Q 666.37 238.20 666.78 238.08
  Q 673.88 236.06 676.85 229.65
  Q 679.90 223.05 679.93 214.59
  Q 680.05 180.84 680.00 148.76
  C 680.00 148.05 679.70 147.40 679.72 146.76
  Q 680.07 133.54 678.39 120.08
  C 677.68 114.36 676.30 107.74 672.77 103.41
  C 670.13 100.16 665.92 99.48 662.25 101.37
  C 656.13 104.53 651.55 113.31 649.42 119.56
  Q 641.49 142.85 641.33 163.67
  Q 641.12 190.00 641.32 217.37
  C 641.38 226.22 645.12 235.71 654.33 238.10
  Q 654.87 238.24 655.00 238.78
  Q 655.10 239.20 654.93 239.59
  Q 654.75 240.00 654.29 240.00
  L 581.75 240.00
  A 0.76 0.74 -10.9 0 1 581.05 239.54
  Q 580.59 238.45 581.72 238.12
  C 591.21 235.39 594.69 225.68 594.71 216.77
  Q 594.82 171.64 594.70 126.96
  C 594.68 116.88 592.15 101.71 582.37 96.75
  Q 582.01 96.57 582.01 96.16
  L 582.00 95.31
  Q 582.00 94.73 582.58 94.73
  Q 601.79 94.49 619.59 88.16
  Q 630.91 84.13 639.27 76.68
  A 1.19 1.19 0.0 0 1 641.25 77.57
  L 641.24 131.75
  Q 641.24 134.70 641.81 131.80
  Z"
/>
<path fill="#673c78" d="
  M 863.66 114.22
  C 862.83 107.66 860.48 96.35 851.80 96.51
  Q 851.25 96.52 851.25 95.97
  L 851.25 91.96
  Q 851.25 91.32 851.87 91.16
  Q 872.61 86.04 891.62 80.94
  Q 897.56 79.35 903.85 76.80
  C 905.96 75.94 907.97 76.33 910.16 76.23
  Q 910.77 76.20 910.77 76.82
  Q 910.70 145.14 910.80 203.57
  Q 910.81 210.64 912.07 218.71
  C 913.17 225.75 915.55 233.96 923.92 234.43
  Q 924.24 234.45 924.24 234.78
  L 924.25 239.75
  Q 924.25 240.00 924.00 240.00
  L 851.74 240.00
  A 0.51 0.50 90.0 0 1 851.24 239.49
  L 851.26 235.03
  A 0.64 0.64 0.0 0 1 851.88 234.39
  C 859.38 234.10 862.25 227.92 863.22 221.41
  Q 864.60 212.14 864.65 204.00
  Q 864.84 173.62 864.72 131.87
  Q 864.69 122.45 863.66 114.22
  Z"
/>
<path fill="#673c78" d="
  M 1153.82 81.95
  Q 1183.55 70.74 1213.03 81.29
  C 1239.46 90.75 1256.55 114.81 1260.63 142.25
  C 1264.25 166.59 1260.01 191.44 1245.07 211.22
  C 1226.42 235.92 1193.99 244.86 1164.42 237.66
  Q 1132.35 229.84 1116.62 200.48
  C 1106.97 182.45 1104.68 159.95 1108.29 139.91
  C 1112.92 114.18 1129.09 91.28 1153.82 81.95
  Z
  M 1194.4954 225.3170
  A 68.15 35.26 82.5 0 0 1220.5583 153.1476
  A 68.15 35.26 82.5 0 0 1176.7046 90.1830
  A 68.15 35.26 82.5 0 0 1150.6417 162.3524
  A 68.15 35.26 82.5 0 0 1194.4954 225.3170
  Z"
/>
<path fill="#673c78" d="
  M 1331.35 129.63
  Q 1331.22 138.18 1332.59 129.74
  C 1335.28 113.22 1343.08 94.29 1356.57 83.93
  C 1365.75 76.88 1377.59 74.86 1388.28 79.69
  C 1408.71 88.94 1416.30 117.46 1416.41 137.45
  Q 1416.59 173.17 1416.49 215.42
  C 1416.46 225.05 1419.61 235.27 1429.81 238.21
  A 0.81 0.81 0.0 0 1 1430.38 239.14
  Q 1430.21 239.99 1429.60 239.99
  Q 1392.90 240.00 1356.92 240.01
  A 0.71 0.69 75.8 0 1 1356.30 239.63
  Q 1355.75 238.53 1356.93 238.18
  Q 1363.98 236.11 1366.93 230.09
  Q 1370.21 223.40 1370.24 213.99
  Q 1370.37 179.52 1370.09 144.00
  Q 1370.08 142.71 1370.09 141.50
  Q 1370.17 128.17 1367.70 114.53
  Q 1366.61 108.47 1363.59 104.11
  C 1359.87 98.72 1353.54 99.54 1349.20 103.73
  C 1343.13 109.59 1339.61 118.70 1337.30 126.75
  Q 1333.63 139.58 1332.21 153.28
  Q 1331.39 161.22 1331.44 172.47
  Q 1331.55 195.33 1331.53 216.74
  C 1331.52 225.67 1335.08 235.49 1344.56 238.12
  A 1.07 1.07 0.0 0 1 1345.25 238.73
  Q 1345.50 239.31 1345.07 239.75
  Q 1344.83 240.00 1344.49 240.00
  L 1272.01 240.00
  A 0.92 0.91 85.1 0 1 1271.11 239.23
  Q 1270.98 238.39 1271.78 238.18
  C 1281.61 235.59 1284.96 225.54 1284.97 216.30
  Q 1285.01 173.35 1285.02 128.40
  C 1285.02 118.21 1282.97 101.91 1272.68 96.77
  Q 1272.16 96.51 1272.21 95.93
  L 1272.26 95.27
  Q 1272.30 94.78 1272.80 94.77
  Q 1289.96 94.45 1306.36 89.41
  Q 1319.55 85.35 1329.57 76.66
  A 1.12 1.12 0.0 0 1 1331.43 77.50
  Q 1331.71 106.78 1331.35 129.63
  Z"
/>
<path fill="#673c78" d="
  M 1474.33 165.31
  Q 1477.11 179.42 1484.86 190.23
  C 1495.98 205.75 1514.08 215.93 1533.48 213.08
  Q 1556.13 209.75 1569.23 190.17
  Q 1569.65 189.55 1570.14 190.11
  L 1572.14 192.36
  Q 1572.68 192.96 1572.37 193.70
  C 1562.17 218.14 1541.78 236.53 1515.40 239.50
  C 1490.77 242.28 1469.70 234.09 1453.81 215.96
  Q 1437.50 197.34 1434.26 171.85
  C 1432.29 156.30 1433.53 139.06 1439.13 124.70
  C 1447.99 101.98 1466.55 82.99 1490.67 77.88
  Q 1518.25 72.04 1542.60 86.60
  Q 1566.11 100.65 1574.70 128.71
  Q 1579.61 144.73 1579.54 163.77
  A 0.74 0.74 0.0 0 1 1578.80 164.50
  L 1474.99 164.50
  Q 1474.17 164.50 1474.33 165.31
  Z
  M 1495.55 91.13
  C 1471.83 99.01 1469.20 130.76 1471.09 151.59
  Q 1471.13 152.00 1471.54 152.00
  L 1541.47 152.00
  A 0.26 0.25 86.9 0 0 1541.72 151.71
  C 1539.61 131.26 1532.71 110.11 1516.74 96.34
  C 1510.73 91.16 1503.41 88.52 1495.55 91.13
  Z"
/>
</svg>
